# xmcd CD database file
#
# Track frame offsets:
#	150
#	24412
#	63450
#	81362
#	108092
#	136755
#	171620
#	193015
#	230032
#	251012
#
# Disc length: 3990 seconds
#
# Revision: 0
# Processed by: cddbd v1.4PL0 Copyright (c) Steve Scherf et al.
# Submitted via: CDex 1.50Beta5
#
DISCID=880f940a
DTITLE=Earl Harvin Trio - Unincorporated
DYEAR=1900
DGENRE=Jazz
TTITLE0=manitou inclined
TTITLE1=sun city
TTITLE2=improv 1
TTITLE3=osiris
TTITLE4=m. natural
TTITLE5=improv 2
TTITLE6=debashish
TTITLE7=blue fred
TTITLE8=lily
TTITLE9=improv 3
EXTD=
EXTT0=
EXTT1=
EXTT2=
EXTT3=
EXTT4=
EXTT5=
EXTT6=
EXTT7=
EXTT8=
EXTT9=
PLAYORDER=
